<svg width="146" height="45" viewBox="0 0 146 45" fill="none" xmlns="http://www.w3.org/2000/svg">
<path d="M21.9242 0C10.3673 0 0.899664 9.11363 0 20.6956L11.7916 25.6817C12.7907 24.9829 13.9978 24.5734 15.2963 24.5734C15.4127 24.5734 15.5285 24.5775 15.6434 24.5841L20.8872 16.8107C20.8872 16.7736 20.8867 16.7375 20.8867 16.7009C20.8867 12.022 24.6082 8.21539 29.1836 8.21539C33.7585 8.21539 37.48 12.022 37.48 16.7009C37.48 21.3797 33.7585 25.1868 29.1836 25.1868C29.1205 25.1868 29.0578 25.1853 28.9952 25.1838L21.5163 30.6414C21.5203 30.7406 21.5238 30.8418 21.5238 30.9425C21.5238 34.4551 18.7303 37.3116 15.2963 37.3116C12.282 37.3116 9.76153 35.1112 9.1906 32.1973L0.757926 28.6318C3.36889 38.076 11.8528 45 21.9242 45C34.0748 45 43.9244 34.9261 43.9244 22.5008C43.9244 10.0734 34.0743 0 21.9242 0Z" fill="#C5C3C0"/>
<path d="M13.7865 34.1402L11.084 32.9983C11.5629 34.0181 12.3915 34.8721 13.4915 35.341C15.8698 36.3542 18.6115 35.2001 19.6027 32.7658C20.0826 31.5889 20.0856 30.2893 19.6097 29.1093C19.1347 27.9288 18.2385 27.0081 17.0862 26.5168C15.9429 26.0301 14.718 26.0479 13.6417 26.4634L16.4332 27.6439C18.1873 28.3916 19.0168 30.4516 18.2858 32.2455C17.5562 34.04 15.5405 34.8883 13.7865 34.1402Z" fill="#C5C3C0"/>
<path d="M34.7114 16.7008C34.7114 13.5834 32.2317 11.0469 29.1831 11.0469C26.135 11.0469 23.6548 13.5834 23.6548 16.7008C23.6548 19.8187 26.135 22.3542 29.1831 22.3542C32.2317 22.3537 34.7114 19.8182 34.7114 16.7008ZM25.0393 16.6911C25.0393 14.3453 26.8988 12.4441 29.1925 12.4441C31.4862 12.4441 33.3457 14.3453 33.3457 16.6911C33.3457 19.0369 31.4862 20.9382 29.1925 20.9382C26.8988 20.9382 25.0393 19.0364 25.0393 16.6911Z" fill="#C5C3C0"/>
<path d="M67.4195 15.3948L65.9454 18.0447C64.81 17.2335 63.2713 16.7452 61.928 16.7452C60.3928 16.7452 59.4429 17.3952 59.4429 18.5595C59.4429 19.974 61.1303 20.3031 63.6383 21.2237C66.3343 22.1987 67.884 23.3447 67.884 25.87C67.884 29.3251 65.2273 31.2656 61.4088 31.2656C59.5478 31.2656 57.3029 30.7742 55.5771 29.7005L56.6524 26.7627C58.0543 27.52 59.7313 27.9691 61.2263 27.9691C63.2415 27.9691 64.1993 27.2087 64.1993 26.0847C64.1993 24.7983 62.7387 24.4118 60.3808 23.6132C57.6938 22.6957 55.8318 21.4917 55.8318 18.6968C55.8318 15.5448 58.3 13.7346 61.8514 13.7346C64.3266 13.7346 66.3159 14.5367 67.4195 15.3948Z" fill="#C5C3C0"/>
<path d="M78.9428 17.0696V30.975H75.472V17.0696H70.4341V14.0249H83.9658V17.0696H78.9428Z" fill="#C5C3C0"/>
<path d="M91.2823 17.0604V20.8797H97.9246V23.9244H91.2823V27.9024H98.9889V30.975H87.8125V14.0249H98.9889V17.0604H91.2823Z" fill="#C5C3C0"/>
<path d="M106.736 27.6841L105.639 30.9755H102L108.215 14.0254H111.708L118.098 30.975H114.337L113.216 27.6836H106.736V27.6841ZM109.942 18.0685L107.678 24.8551H112.252L109.942 18.0685Z" fill="#C5C3C0"/>
<path d="M135.911 20.5766L131.375 30.4811H129.417L124.954 20.6651V30.975H121.631V14.0249H124.947L130.517 26.2605L135.889 14.0249H139.234V30.975H135.911L135.911 20.5766Z" fill="#C5C3C0"/>
<path d="M145.944 16.1632C145.944 17.6199 144.877 18.5278 143.652 18.5278C142.423 18.5278 141.353 17.6199 141.353 16.1632C141.353 14.707 142.423 13.8052 143.652 13.8052C144.878 13.8052 145.944 14.707 145.944 16.1632ZM141.738 16.1632C141.738 17.3819 142.597 18.1473 143.652 18.1473C144.704 18.1473 145.558 17.3819 145.558 16.1632C145.558 14.9409 144.704 14.1872 143.652 14.1872C142.6 14.1872 141.738 14.9501 141.738 16.1632ZM143.684 14.9582C144.278 14.9582 144.478 15.2797 144.478 15.6271C144.478 15.9455 144.294 16.1591 144.069 16.268L144.602 17.2888H144.165L143.716 16.3839H143.253V17.2888H142.89V14.9582H143.684ZM143.257 16.0426H143.662C143.924 16.0426 144.078 15.8743 144.078 15.6627C144.078 15.4491 143.967 15.3117 143.661 15.3117H143.256V16.0426H143.257Z" fill="#C5C3C0"/>
</svg>
