<svg width="55" height="18" viewBox="0 0 55 18" fill="none" xmlns="http://www.w3.org/2000/svg">
<rect width="54.1673" height="17.8286" fill="black"/>
<path d="M24.1641 12.0801V13H19.8984V12.0801H24.1641ZM20.1211 4.46875V13H18.9902V4.46875H20.1211ZM26.6719 4.46875V13H25.541V4.46875H26.6719ZM31.4824 11.7051L33.9961 4.46875H35.2207L32.0625 13H31.1895L31.4824 11.7051ZM29.1328 4.46875L31.623 11.7051L31.9336 13H31.0605L27.9082 4.46875H29.1328ZM41.7891 12.0801V13H37.2715V12.0801H41.7891ZM37.5 4.46875V13H36.3691V4.46875H37.5ZM41.1914 8.13672V9.05664H37.2715V8.13672H41.1914ZM41.7305 4.46875V5.39453H37.2715V4.46875H41.7305Z" fill="white"/>
<ellipse cx="8.92328" cy="9.15699" rx="4.97455" ry="5.01429" fill="#AF5958"/>
</svg>
